<svg id="e3XSvEcuDKd1" xmlns="http://www.w3.org/2000/svg" xmlns:xlink="http://www.w3.org/1999/xlink" viewBox="0 0 681 453" shape-rendering="geometricPrecision" text-rendering="geometricPrecision"><path id="e3XSvEcuDKd2" d="M376.1,238.8h-10c-.2-1.3-.6-2.4-1.1-3.4-.6-1-1.3-1.9-2.2-2.6s-1.9-1.3-3-1.6c-1.1-.4-2.4-.6-3.7-.6-2.4,0-4.5.6-6.3,1.8s-3.2,2.9-4.2,5.2-1.5,5-1.5,8.2c0,3.3.5,6.1,1.5,8.4s2.4,4,4.2,5.1c1.8,1.2,3.9,1.7,6.2,1.7c1.3,0,2.5-.2,3.7-.5c1.1-.3,2.1-.9,3-1.5.9-.7,1.6-1.5,2.2-2.5s1-2.1,1.2-3.3h10c-.3,2.1-.9,4.2-1.9,6.2s-2.4,3.7-4.1,5.3c-1.7,1.5-3.8,2.8-6.1,3.7-2.4.9-5,1.3-8,1.3-4.2,0-7.9-.9-11.1-2.8-3.3-1.9-5.8-4.6-7.7-8.2s-2.8-7.9-2.8-12.9c0-5.1,1-9.4,2.9-13s4.5-6.3,7.8-8.1c3.3-1.9,7-2.8,11-2.8c2.7,0,5.2.4,7.5,1.1c2.3.8,4.4,1.9,6.2,3.3s3.2,3.2,4.4,5.3c.9,2.1,1.6,4.5,1.9,7.2Zm7.1,30.2v-46.5h9.8v19.2h20v-19.2h9.8v46.5h-9.8v-19.2h-20v19.2h-9.8Zm55.7,0h-10.5l16.1-46.5h12.7l16,46.5h-10.5L451,233.1h-.4L438.9,269Zm-.6-18.3h24.9v7.7h-24.9v-7.7Zm79.4-28.2v46.5h-8.5L489,239.7h-.3v29.3h-9.8v-46.5h8.6l20.1,29.3h.4v-29.3h9.7Zm39,15c-.3-1.1-.8-2.1-1.3-2.9-.6-.9-1.3-1.6-2.1-2.2s-1.8-1.1-2.8-1.4-2.2-.5-3.5-.5c-2.4,0-4.5.6-6.3,1.8s-3.2,2.9-4.2,5.2c-1,2.2-1.5,5-1.5,8.2s.5,6,1.5,8.3s2.4,4,4.2,5.2s3.9,1.8,6.4,1.8c2.2,0,4.1-.4,5.7-1.2s2.8-1.9,3.6-3.4s1.3-3.2,1.3-5.2l2,.3h-12v-7.4h19.5v5.9c0,4.1-.9,7.6-2.6,10.5s-4.1,5.2-7.1,6.8-6.5,2.4-10.4,2.4c-4.4,0-8.2-1-11.5-2.9s-5.9-4.7-7.7-8.2c-1.8-3.6-2.8-7.8-2.8-12.7c0-3.8.5-7.1,1.6-10.1s2.7-5.5,4.6-7.5c2-2.1,4.3-3.6,6.9-4.7s5.5-1.6,8.6-1.6c2.6,0,5.1.4,7.4,1.2s4.3,1.8,6,3.2c1.8,1.4,3.2,3.1,4.3,5s1.8,4,2.2,6.3h-10Zm27.7-15v46.5h-9.8v-46.5h9.8Zm47,0v46.5h-8.5l-20.2-29.3h-.3v29.3h-9.8v-46.5h8.6l20.1,29.3h.4v-29.3h9.7Zm39,15c-.3-1.1-.8-2.1-1.3-2.9-.6-.9-1.3-1.6-2.1-2.2s-1.8-1.1-2.8-1.4-2.2-.5-3.5-.5c-2.4,0-4.5.6-6.3,1.8s-3.2,2.9-4.2,5.2c-1,2.2-1.5,5-1.5,8.2s.5,6,1.5,8.3s2.4,4,4.2,5.2s3.9,1.8,6.4,1.8c2.2,0,4.1-.4,5.7-1.2s2.8-1.9,3.6-3.4s1.3-3.2,1.3-5.2l2,.3h-12v-7.4h19.5v5.9c0,4.1-.9,7.6-2.6,10.5s-4.1,5.2-7.1,6.8-6.5,2.4-10.4,2.4c-4.4,0-8.2-1-11.5-2.9s-5.9-4.7-7.7-8.2c-1.8-3.6-2.8-7.8-2.8-12.7c0-3.8.5-7.1,1.6-10.1s2.7-5.5,4.6-7.5c2-2.1,4.3-3.6,6.9-4.7s5.5-1.6,8.6-1.6c2.6,0,5.1.4,7.4,1.2s4.3,1.8,6,3.2c1.8,1.4,3.2,3.1,4.3,5s1.8,4,2.2,6.3h-10Z" transform="matrix(.999987 0.005043-.005043 0.999987-157.404022-.528119)" opacity="0"/><path id="e3XSvEcuDKd3" d="M207.1,337.6h-10.5l16.1-46.5h12.7l16,46.5h-10.5l-11.7-35.9h-.4l-11.7,35.9Zm-.7-18.2h24.9v7.7h-24.9v-7.7Zm40.5,18.2v-46.5h18.4c3.5,0,6.5.6,9,1.9c2.5,1.2,4.4,3,5.7,5.3s2,4.9,2,8-.7,5.8-2,8-3.3,3.9-5.8,5.1-5.6,1.8-9.1,1.8h-12.3v-7.9h10.7c1.9,0,3.4-.3,4.7-.8c1.2-.5,2.2-1.3,2.8-2.3s.9-2.3.9-3.8-.3-2.8-.9-3.9-1.5-1.9-2.8-2.4c-1.2-.6-2.8-.8-4.7-.8h-6.6v38.5h-10Zm25.2-21.1l11.6,21.2h-10.9l-11.3-21.2h10.6Zm15-17.3v-8.1h38.2v8.1h-14.2v38.4h-9.7v-38.4h-14.3Z" transform="translate(76.05 4.043921)" opacity="0"/><g id="e3XSvEcuDKd4" transform="translate(.000001 0)"><path d="M278,196.6v0c3.8,1.6,5.3,5.9,3.4,9.5l-12.6,24.2c-1.9,3.6-6.5,5.3-10.3,3.7v0c-3.8-1.6-5.3-5.9-3.4-9.5l12.6-24.2c2-3.7,6.6-5.3,10.3-3.7Z" fill="#5d45f3"/><path d="M306.3,207.6v0c1.8,2.7.9,6.2-2,7.7l-28.8,15.5c-2.9,1.5-6.6.6-8.4-2.2v0c-1.8-2.7-.9-6.2,2-7.7l28.8-15.5c2.8-1.5,6.6-.5,8.4,2.2Z" fill="#5d45f3"/><path d="M313.1,223v0c1.3,2.9,0,6.1-2.9,7.2l-31.4,12c-2.9,1.1-6.4-.3-7.7-3.1v0c-1.3-2.9,0-6.1,2.9-7.2l31.4-12c2.9-1.2,6.3.2,7.7,3.1Z" fill="#5d45f3"/><path d="M313,241.1v0c.7,3-1.2,6-4.2,6.6l-33.5,6.5c-3.1.6-6.1-1.4-6.8-4.4v0c-.7-3,1.2-6,4.2-6.6l33.5-6.5c3-.6,6.1,1.4,6.8,4.4Z" fill="#5d45f3"/><path d="M154,250.7v0c-2-12.3,6.5-23.6,18.8-25.2l84.6-11.1c12.3-1.6,23.9,7,25.9,19.3v0c2,12.3-6.5,23.6-18.8,25.2L179.9,270c-12.3,1.6-23.9-7-25.9-19.3Z" fill="#6d56f6"/><ellipse rx="10.4" ry="14.1" transform="matrix(.9731-.2303 0.2303 0.9731 264.689546 234.108027)" fill="#5237f4"/></g><path id="e3XSvEcuDKd11" d="M85.8,201.9v0c5.4-11.2,18.9-15.8,30.1-10.4l71.8,34.8c11.2,5.4,15.8,18.9,10.4,30.1v0c-5.4,11.2-18.9,15.8-30.1,10.4L96.2,232c-11.1-5.5-15.8-18.9-10.4-30.1Z" fill="#5d45f3"/><g id="e3XSvEcuDKd12"><circle r="25" transform="translate(119 161.6)"/><ellipse rx="7.5" ry="3.5" transform="matrix(.1122-.9937 0.9937 0.1122 134.365342 163.9347)" fill="#fff"/><ellipse rx="7.5" ry="3.5" transform="matrix(.1122-.9937 0.9937 0.1122 122.389983 162.558647)" fill="#fff"/></g><g id="e3XSvEcuDKd16"><path d="M88.2,179l39.1,15.2c6.2,2.4,9.2,9.4,6.8,15.5l-28.3,72.7c-2.4,6.2-9.4,9.2-15.5,6.8L51.2,274c-6.2-2.4-9.2-9.4-6.8-15.5l28.3-72.7c2.3-6.1,9.3-9.2,15.5-6.8Z"/><path d="M88,179.5l39.1,15.2c5.9,2.3,8.9,9,6.6,14.9l-28.3,72.7c-2.3,5.9-9,8.9-14.9,6.6L51.4,273.7c-5.9-2.3-8.9-9-6.6-14.9L73.1,186c2.3-5.9,8.9-8.8,14.9-6.5Z" fill="none" stroke="#000"/></g><path id="e3XSvEcuDKd19" d="M95.4,177.5v0c10.2,7.1,12.7,21.1,5.6,31.3L43.8,291c-7.1,10.2-21.1,12.7-31.3,5.6v0c-10.2-7.1-12.7-21.1-5.6-31.3l57.2-82.2c7.1-10.2,21.1-12.7,31.3-5.6Z" fill="#5d45f3"/><path id="e3XSvEcuDKd20" d="M1.1,278v0c1.2-12.4,12.1-21.5,24.5-20.3l99.7,9.3c12.4,1.2,21.5,12.1,20.3,24.5v0c-1.2,12.4-12.1,21.5-24.5,20.3l-99.7-9.3C9,301.4,-0.1,290.4,1.1,278Z" transform="translate(0-.493801)" fill="#6d56f6"/><g><path d="M337,0v0c6.6,0,12,5.4,12,12v421c0,6.6-5.4,12-12,12v0c-6.6,0-12-5.4-12-12v-421c0-6.6,5.4-12,12-12Z" fill="#fdff8c"/></g>
<script><![CDATA[
!function(t,n){"object"==typeof exports&&"undefined"!=typeof module?module.exports=n():"function"==typeof __SVGATOR_DEFINE__&&__SVGATOR_DEFINE__.amd?__SVGATOR_DEFINE__(n):((t="undefined"!=typeof globalThis?globalThis:t||self).__SVGATOR_PLAYER__=t.__SVGATOR_PLAYER__||{},t.__SVGATOR_PLAYER__["5c7f360c"]=n())}(this,(function(){"use strict";function t(t,n){var e=Object.keys(t);if(Object.getOwnPropertySymbols){var r=Object.getOwnPropertySymbols(t);n&&(r=r.filter((function(n){return Object.getOwnPropertyDescriptor(t,n).enumerable}))),e.push.apply(e,r)}return e}function n(n){for(var e=1;e<arguments.length;e++){var r=null!=arguments[e]?arguments[e]:{};e%2?t(Object(r),!0).forEach((function(t){u(n,t,r[t])})):Object.getOwnPropertyDescriptors?Object.defineProperties(n,Object.getOwnPropertyDescriptors(r)):t(Object(r)).forEach((function(t){Object.defineProperty(n,t,Object.getOwnPropertyDescriptor(r,t))}))}return n}function e(t){return(e="function"==typeof Symbol&&"symbol"==typeof Symbol.iterator?function(t){return typeof t}:function(t){return t&&"function"==typeof Symbol&&t.constructor===Symbol&&t!==Symbol.prototype?"symbol":typeof t})(t)}function r(t,n){if(!(t instanceof n))throw new TypeError("Cannot call a class as a function")}function i(t,n){for(var e=0;e<n.length;e++){var r=n[e];r.enumerable=r.enumerable||!1,r.configurable=!0,"value"in r&&(r.writable=!0),Object.defineProperty(t,r.key,r)}}function o(t,n,e){return n&&i(t.prototype,n),e&&i(t,e),t}function u(t,n,e){return n in t?Object.defineProperty(t,n,{value:e,enumerable:!0,configurable:!0,writable:!0}):t[n]=e,t}function a(t){return(a=Object.setPrototypeOf?Object.getPrototypeOf:function(t){return t.__proto__||Object.getPrototypeOf(t)})(t)}function l(t,n){return(l=Object.setPrototypeOf||function(t,n){return t.__proto__=n,t})(t,n)}function s(){if("undefined"==typeof Reflect||!Reflect.construct)return!1;if(Reflect.construct.sham)return!1;if("function"==typeof Proxy)return!0;try{return Boolean.prototype.valueOf.call(Reflect.construct(Boolean,[],(function(){}))),!0}catch(t){return!1}}function f(t,n,e){return(f=s()?Reflect.construct:function(t,n,e){var r=[null];r.push.apply(r,n);var i=new(Function.bind.apply(t,r));return e&&l(i,e.prototype),i}).apply(null,arguments)}function c(t,n){if(n&&("object"==typeof n||"function"==typeof n))return n;if(void 0!==n)throw new TypeError("Derived constructors may only return object or undefined");return function(t){if(void 0===t)throw new ReferenceError("this hasn't been initialised - super() hasn't been called");return t}(t)}function h(t,n,e){return(h="undefined"!=typeof Reflect&&Reflect.get?Reflect.get:function(t,n,e){var r=function(t,n){for(;!Object.prototype.hasOwnProperty.call(t,n)&&null!==(t=a(t)););return t}(t,n);if(r){var i=Object.getOwnPropertyDescriptor(r,n);return i.get?i.get.call(e):i.value}})(t,n,e||t)}function v(t){return function(t){if(Array.isArray(t))return y(t)}(t)||function(t){if("undefined"!=typeof Symbol&&null!=t[Symbol.iterator]||null!=t["@@iterator"])return Array.from(t)}(t)||function(t,n){if(!t)return;if("string"==typeof t)return y(t,n);var e=Object.prototype.toString.call(t).slice(8,-1);"Object"===e&&t.constructor&&(e=t.constructor.name);if("Map"===e||"Set"===e)return Array.from(t);if("Arguments"===e||/^(?:Ui|I)nt(?:8|16|32)(?:Clamped)?Array$/.test(e))return y(t,n)}(t)||function(){throw new TypeError("Invalid attempt to spread non-iterable instance.\nIn order to be iterable, non-array objects must have a [Symbol.iterator]() method.")}()}function y(t,n){(null==n||n>t.length)&&(n=t.length);for(var e=0,r=new Array(n);e<n;e++)r[e]=t[e];return r}Number.isInteger||(Number.isInteger=function(t){return"number"==typeof t&&isFinite(t)&&Math.floor(t)===t}),Number.EPSILON||(Number.EPSILON=2220446049250313e-31);var g=d(Math.pow(10,-6));function d(t){var n=arguments.length>1&&void 0!==arguments[1]?arguments[1]:6;if(Number.isInteger(t))return t;var e=Math.pow(10,n);return Math.round((+t+Number.EPSILON)*e)/e}function p(t,n){var e=arguments.length>2&&void 0!==arguments[2]?arguments[2]:g;return Math.abs(t-n)<e}var m=Math.PI/180;function b(t){return t}function w(t,n,e){var r=1-e;return 3*e*r*(t*r+n*e)+e*e*e}function A(){var t=arguments.length>0&&void 0!==arguments[0]?arguments[0]:0,n=arguments.length>1&&void 0!==arguments[1]?arguments[1]:0,e=arguments.length>2&&void 0!==arguments[2]?arguments[2]:1,r=arguments.length>3&&void 0!==arguments[3]?arguments[3]:1;return t<0||t>1||e<0||e>1?null:p(t,n)&&p(e,r)?b:function(i){if(i<=0)return t>0?i*n/t:0===n&&e>0?i*r/e:0;if(i>=1)return e<1?1+(i-1)*(r-1)/(e-1):1===e&&t<1?1+(i-1)*(n-1)/(t-1):1;for(var o,u=0,a=1;u<a;){var l=w(t,e,o=(u+a)/2);if(p(i,l))break;l<i?u=o:a=o}return w(n,r,o)}}function _(){return 1}function x(t){return 1===t?1:0}function k(){var t=arguments.length>0&&void 0!==arguments[0]?arguments[0]:1,n=arguments.length>1&&void 0!==arguments[1]?arguments[1]:0;if(1===t){if(0===n)return x;if(1===n)return _}var e=1/t;return function(t){return t>=1?1:(t+=n*e)-t%e}}var S=Math.sin,O=Math.cos,j=Math.acos,E=Math.asin,M=Math.tan,P=Math.atan2,I=Math.PI/180,R=180/Math.PI,F=Math.sqrt,N=function(){function t(){var n=arguments.length>0&&void 0!==arguments[0]?arguments[0]:1,e=arguments.length>1&&void 0!==arguments[1]?arguments[1]:0,i=arguments.length>2&&void 0!==arguments[2]?arguments[2]:0,o=arguments.length>3&&void 0!==arguments[3]?arguments[3]:1,u=arguments.length>4&&void 0!==arguments[4]?arguments[4]:0,a=arguments.length>5&&void 0!==arguments[5]?arguments[5]:0;r(this,t),this.m=[n,e,i,o,u,a],this.i=null,this.w=null,this.s=null}return o(t,[{key:"determinant",get:function(){var t=this.m;return t[0]*t[3]-t[1]*t[2]}},{key:"isIdentity",get:function(){if(null===this.i){var t=this.m;this.i=1===t[0]&&0===t[1]&&0===t[2]&&1===t[3]&&0===t[4]&&0===t[5]}return this.i}},{key:"point",value:function(t,n){var e=this.m;return{x:e[0]*t+e[2]*n+e[4],y:e[1]*t+e[3]*n+e[5]}}},{key:"translateSelf",value:function(){var t=arguments.length>0&&void 0!==arguments[0]?arguments[0]:0,n=arguments.length>1&&void 0!==arguments[1]?arguments[1]:0;if(!t&&!n)return this;var e=this.m;return e[4]+=e[0]*t+e[2]*n,e[5]+=e[1]*t+e[3]*n,this.w=this.s=this.i=null,this}},{key:"rotateSelf",value:function(){var t=arguments.length>0&&void 0!==arguments[0]?arguments[0]:0;if(t%=360){var n=S(t*=I),e=O(t),r=this.m,i=r[0],o=r[1];r[0]=i*e+r[2]*n,r[1]=o*e+r[3]*n,r[2]=r[2]*e-i*n,r[3]=r[3]*e-o*n,this.w=this.s=this.i=null}return this}},{key:"scaleSelf",value:function(){var t=arguments.length>0&&void 0!==arguments[0]?arguments[0]:1,n=arguments.length>1&&void 0!==arguments[1]?arguments[1]:1;if(1!==t||1!==n){var e=this.m;e[0]*=t,e[1]*=t,e[2]*=n,e[3]*=n,this.w=this.s=this.i=null}return this}},{key:"skewSelf",value:function(t,n){if(n%=360,(t%=360)||n){var e=this.m,r=e[0],i=e[1],o=e[2],u=e[3];t&&(t=M(t*I),e[2]+=r*t,e[3]+=i*t),n&&(n=M(n*I),e[0]+=o*n,e[1]+=u*n),this.w=this.s=this.i=null}return this}},{key:"resetSelf",value:function(){var t=arguments.length>0&&void 0!==arguments[0]?arguments[0]:1,n=arguments.length>1&&void 0!==arguments[1]?arguments[1]:0,e=arguments.length>2&&void 0!==arguments[2]?arguments[2]:0,r=arguments.length>3&&void 0!==arguments[3]?arguments[3]:1,i=arguments.length>4&&void 0!==arguments[4]?arguments[4]:0,o=arguments.length>5&&void 0!==arguments[5]?arguments[5]:0,u=this.m;return u[0]=t,u[1]=n,u[2]=e,u[3]=r,u[4]=i,u[5]=o,this.w=this.s=this.i=null,this}},{key:"recomposeSelf",value:function(){var t=arguments.length>0&&void 0!==arguments[0]?arguments[0]:null,n=arguments.length>1&&void 0!==arguments[1]?arguments[1]:null,e=arguments.length>2&&void 0!==arguments[2]?arguments[2]:null,r=arguments.length>3&&void 0!==arguments[3]?arguments[3]:null,i=arguments.length>4&&void 0!==arguments[4]?arguments[4]:null;return this.isIdentity||this.resetSelf(),t&&(t.x||t.y)&&this.translateSelf(t.x,t.y),n&&this.rotateSelf(n),e&&(e.x&&this.skewSelf(e.x,0),e.y&&this.skewSelf(0,e.y)),!r||1===r.x&&1===r.y||this.scaleSelf(r.x,r.y),i&&(i.x||i.y)&&this.translateSelf(i.x,i.y),this}},{key:"decompose",value:function(){var t=arguments.length>0&&void 0!==arguments[0]?arguments[0]:0,n=arguments.length>1&&void 0!==arguments[1]?arguments[1]:0,e=this.m,r=e[0]*e[0]+e[1]*e[1],i=[[e[0],e[1]],[e[2],e[3]]],o=F(r);if(0===o)return{origin:{x:d(e[4]),y:d(e[5])},translate:{x:d(t),y:d(n)},scale:{x:0,y:0},skew:{x:0,y:0},rotate:0};i[0][0]/=o,i[0][1]/=o;var u=e[0]*e[3]-e[1]*e[2]<0;u&&(o=-o);var a=i[0][0]*i[1][0]+i[0][1]*i[1][1];i[1][0]-=i[0][0]*a,i[1][1]-=i[0][1]*a;var l=F(i[1][0]*i[1][0]+i[1][1]*i[1][1]);if(0===l)return{origin:{x:d(e[4]),y:d(e[5])},translate:{x:d(t),y:d(n)},scale:{x:d(o),y:0},skew:{x:0,y:0},rotate:0};i[1][0]/=l,i[1][1]/=l,a/=l;var s=0;return i[1][1]<0?(s=j(i[1][1])*R,i[0][1]<0&&(s=360-s)):s=E(i[0][1])*R,u&&(s=-s),a=P(a,F(i[0][0]*i[0][0]+i[0][1]*i[0][1]))*R,u&&(a=-a),{origin:{x:d(e[4]),y:d(e[5])},translate:{x:d(t),y:d(n)},scale:{x:d(o),y:d(l)},skew:{x:d(a),y:0},rotate:d(s)}}},{key:"clone",value:function(){var t=this.m;return new this.constructor(t[0],t[1],t[2],t[3],t[4],t[5])}},{key:"toString",value:function(){var t=arguments.length>0&&void 0!==arguments[0]?arguments[0]:" ";if(null===this.s){var n=this.m.map((function(t){return d(t)}));1===n[0]&&0===n[1]&&0===n[2]&&1===n[3]?this.s="translate("+n[4]+t+n[5]+")":this.s="matrix("+n.join(t)+")"}return this.s}}],[{key:"create",value:function(t){return t?Array.isArray(t)?f(this,v(t)):t instanceof this?t.clone():(new this).recomposeSelf(t.origin,t.rotate,t.skew,t.scale,t.translate):new this}}]),t}();function T(t,n,e){return t>=.5?e:n}function q(t,n,e){return 0===t||n===e?n:t*(e-n)+n}function B(t,n,e){var r=q(t,n,e);return r<=0?0:r}function D(t,n,e){var r=q(t,n,e);return r<=0?0:r>=1?1:r}function L(t,n,e){return 0===t?n:1===t?e:{x:q(t,n.x,e.x),y:q(t,n.y,e.y)}}function C(t,n,e){var r=function(t,n,e){return Math.round(q(t,n,e))}(t,n,e);return r<=0?0:r>=255?255:r}function V(t,n,e){return 0===t?n:1===t?e:{r:C(t,n.r,e.r),g:C(t,n.g,e.g),b:C(t,n.b,e.b),a:q(t,null==n.a?1:n.a,null==e.a?1:e.a)}}function G(t,n){for(var e=[],r=0;r<t;r++)e.push(n);return e}function z(t,n){if(--n<=0)return t;var e=(t=Object.assign([],t)).length;do{for(var r=0;r<e;r++)t.push(t[r])}while(--n>0);return t}var Y,$=function(){function t(n){r(this,t),this.list=n,this.length=n.length}return o(t,[{key:"setAttribute",value:function(t,n){for(var e=this.list,r=0;r<this.length;r++)e[r].setAttribute(t,n)}},{key:"removeAttribute",value:function(t){for(var n=this.list,e=0;e<this.length;e++)n[e].removeAttribute(t)}},{key:"style",value:function(t,n){for(var e=this.list,r=0;r<this.length;r++)e[r].style[t]=n}}]),t}(),U=/-./g,Q=function(t,n){return n.toUpperCase()};function H(t){return"function"==typeof t?t:T}function J(t){return t?"function"==typeof t?t:Array.isArray(t)?function(t){var n=arguments.length>1&&void 0!==arguments[1]?arguments[1]:b;if(!Array.isArray(t))return n;switch(t.length){case 1:return k(t[0])||n;case 2:return k(t[0],t[1])||n;case 4:return A(t[0],t[1],t[2],t[3])||n}return n}(t,null):function(t,n){var e=arguments.length>2&&void 0!==arguments[2]?arguments[2]:b;switch(t){case"linear":return b;case"steps":return k(n.steps||1,n.jump||0)||e;case"bezier":case"cubic-bezier":return A(n.x1||0,n.y1||0,n.x2||0,n.y2||0)||e}return e}(t.type,t.value,null):null}function Z(t,n,e){var r=arguments.length>3&&void 0!==arguments[3]&&arguments[3],i=n.length-1;if(t<=n[0].t)return r?[0,0,n[0].v]:n[0].v;if(t>=n[i].t)return r?[i,1,n[i].v]:n[i].v;var o,u=n[0],a=null;for(o=1;o<=i;o++){if(!(t>n[o].t)){a=n[o];break}u=n[o]}return null==a?r?[i,1,n[i].v]:n[i].v:u.t===a.t?r?[o,1,a.v]:a.v:(t=(t-u.t)/(a.t-u.t),u.e&&(t=u.e(t)),r?[o,t,e(t,u.v,a.v)]:e(t,u.v,a.v))}function K(t,n){var e=arguments.length>2&&void 0!==arguments[2]?arguments[2]:null;return t&&t.length?"function"!=typeof n?null:("function"!=typeof e&&(e=null),function(r){var i=Z(r,t,n);return null!=i&&e&&(i=e(i)),i}):null}function W(t,n){return t.t-n.t}function X(t,n,r,i,o){var u,a="@"===r[0],l="#"===r[0],s=Y[r],f=T;switch(a?(u=r.substr(1),r=u.replace(U,Q)):l&&(r=r.substr(1)),e(s)){case"function":if(f=s(i,o,Z,J,r,a,n,t),l)return f;break;case"string":f=K(i,H(s));break;case"object":if((f=K(i,H(s.i),s.f))&&"function"==typeof s.u)return s.u(n,f,r,a,t)}return f?function(t,n,e){if(arguments.length>3&&void 0!==arguments[3]&&arguments[3])return t instanceof $?function(r){return t.style(n,e(r))}:function(r){return t.style[n]=e(r)};if(Array.isArray(n)){var r=n.length;return function(i){var o=e(i);if(null==o)for(var u=0;u<r;u++)t[u].removeAttribute(n);else for(var a=0;a<r;a++)t[a].setAttribute(n,o)}}return function(r){var i=e(r);null==i?t.removeAttribute(n):t.setAttribute(n,i)}}(n,r,f,a):null}function tt(t,n,r,i){if(!i||"object"!==e(i))return null;var o=null,u=null;return Array.isArray(i)?u=function(t){if(!t||!t.length)return null;for(var n=0;n<t.length;n++)t[n].e&&(t[n].e=J(t[n].e));return t.sort(W)}(i):(u=i.keys,o=i.data||null),u?X(t,n,r,u,o):null}function nt(t,n,e){if(!e)return null;var r=[];for(var i in e)if(e.hasOwnProperty(i)){var o=tt(t,n,i,e[i]);o&&r.push(o)}return r.length?r:null}function et(t,n){if(!n.settings.duration||n.settings.duration<0)return null;var e,r,i,o,u,a=function(t,n){if(!n)return null;var e=[];if(Array.isArray(n))for(var r=n.length,i=0;i<r;i++){var o=n[i];if(2===o.length){var u=null;if("string"==typeof o[0])u=t.getElementById(o[0]);else if(Array.isArray(o[0])){u=[];for(var a=0;a<o[0].length;a++)if("string"==typeof o[0][a]){var l=t.getElementById(o[0][a]);l&&u.push(l)}u=u.length?1===u.length?u[0]:new $(u):null}if(u){var s=nt(t,u,o[1]);s&&(e=e.concat(s))}}}else for(var f in n)if(n.hasOwnProperty(f)){var c=t.getElementById(f);if(c){var h=nt(t,c,n[f]);h&&(e=e.concat(h))}}return e.length?e:null}(t,n.elements);return a?(e=a,r=n.settings,i=r.duration,o=e.length,u=null,function(t,n){var a=r.iterations||1/0,l=(r.alternate&&a%2==0)^r.direction>0?i:0,s=t%i,f=1+(t-s)/i;n*=r.direction,r.alternate&&f%2==0&&(n=-n);var c=!1;if(f>a)s=l,c=!0,-1===r.fill&&(s=r.direction>0?0:i);else if(n<0&&(s=i-s),s===u)return!1;u=s;for(var h=0;h<o;h++)e[h](s);return c}):null}function rt(t,n){for(var e=n.querySelectorAll("svg"),r=0;r<e.length;r++)if(e[r].id===t.root&&!e[r].svgatorAnimation)return e[r].svgatorAnimation=!0,e[r];return null}function it(t){var n=function(t){return t.shadowRoot};return document?Array.from(t.querySelectorAll(":not("+["a","area","audio","br","canvas","circle","datalist","embed","g","head","hr","iframe","img","input","link","object","path","polygon","rect","script","source","style","svg","title","track","video"].join()+")")).filter(n).map(n):[]}function ot(t){var n=arguments.length>1&&void 0!==arguments[1]?arguments[1]:document,e=arguments.length>2&&void 0!==arguments[2]?arguments[2]:0,r=rt(t,n);if(r)return r;if(e>=20)return null;for(var i=it(n),o=0;o<i.length;o++){var u=ot(t,i[o],e+1);if(u)return u}return null}function ut(t,n){if(Y=n,!t||!t.root||!Array.isArray(t.animations))return null;var e=ot(t);if(!e)return null;var r=t.animations.map((function(t){return et(e,t)})).filter((function(t){return!!t}));return r.length?{svg:e,animations:r,animationSettings:t.animationSettings,options:t.options||void 0}:null}function at(t){var n=arguments.length>1&&void 0!==arguments[1]?arguments[1]:null,e=arguments.length>2&&void 0!==arguments[2]?arguments[2]:Number,r=arguments.length>3&&void 0!==arguments[3]?arguments[3]:"undefined"!=typeof BigInt&&BigInt,i="0x"+(t.replace(/[^0-9a-fA-F]+/g,"")||27);return n&&r&&e.isSafeInteger&&!e.isSafeInteger(+i)?e(r(i))%n+n:+i}function lt(t,n,e){return!t||!e||n>t.length?t:t.substring(0,n)+lt(t.substring(n+1),e,e)}function st(t){var n=arguments.length>1&&void 0!==arguments[1]?arguments[1]:27;return!t||t%n?t%n:[0,1].includes(n)?n:st(t/n,n)}function ft(t,n,e){if(t&&t.length){var r=at(e),i=st(r)+5,o=lt(t,st(r,5),i);return o=o.replace(/\x7c$/g,"==").replace(/\x2f$/g,"="),o=function(t,n,e){var r=+("0x"+t.substring(0,4));t=t.substring(4);for(var i=at(n,r)%r+e%27,o=[],u=0;u<t.length;u+=2)if("|"!==t[u]){var a=+("0x"+t[u]+t[u+1])-i;o.push(a)}else{var l=+("0x"+t.substring(u+1,u+1+4))-i;u+=3,o.push(l)}return String.fromCharCode.apply(String,o)}(o=(o=atob(o)).replace(/[\x41-\x5A]/g,""),n,r),o=JSON.parse(o)}}var ct=[{key:"alternate",def:!1},{key:"fill",def:1},{key:"iterations",def:0},{key:"direction",def:1},{key:"speed",def:1},{key:"fps",def:100}],ht=function(){function t(n,e){var i=this,o=arguments.length>2&&void 0!==arguments[2]?arguments[2]:null;r(this,t),this._id=0,this._running=!1,this._rollingBack=!1,this._animations=n,this._settings=e,(!o||o<"2022-05-02")&&delete this._settings.speed,ct.forEach((function(t){i._settings[t.key]=i._settings[t.key]||t.def})),this.duration=e.duration,this.offset=e.offset||0,this.rollbackStartOffset=0}return o(t,[{key:"alternate",get:function(){return this._settings.alternate}},{key:"fill",get:function(){return this._settings.fill}},{key:"iterations",get:function(){return this._settings.iterations}},{key:"direction",get:function(){return this._settings.direction}},{key:"speed",get:function(){return this._settings.speed}},{key:"fps",get:function(){return this._settings.fps}},{key:"maxFiniteDuration",get:function(){return this.iterations>0?this.iterations*this.duration:this.duration}},{key:"_apply",value:function(t){for(var n=arguments.length>1&&void 0!==arguments[1]?arguments[1]:{},e=this._animations,r=e.length,i=0,o=0;o<r;o++)n[o]?i++:(n[o]=e[o](t,1),n[o]&&i++);return i}},{key:"_rollback",value:function(t){var n=this,e=1/0,r=null;this.rollbackStartOffset=t,this._rollingBack=!0,this._running=!0;this._id=window.requestAnimationFrame((function i(o){if(n._rollingBack){null==r&&(r=o);var u=Math.round(t-(o-r)*n.speed);if(u>n.duration&&e!==1/0){var a=!!n.alternate&&u/n.duration%2>1,l=u%n.duration;u=(l+=a?n.duration:0)||n.duration}var s=(n.fps?1e3/n.fps:0)*n.speed,f=Math.max(0,u);f<=e-s&&(n.offset=f,e=f,n._apply(f));var c=n.iterations>0&&-1===n.fill&&u>=n.maxFiniteDuration;(u<=0||n.offset<u||c)&&n.stop(),n._id=window.requestAnimationFrame(i)}}))}},{key:"_start",value:function(){var t=this,n=arguments.length>0&&void 0!==arguments[0]?arguments[0]:0,e=-1/0,r=null,i={};this._running=!0;var o=function o(u){null==r&&(r=u);var a=Math.round((u-r)*t.speed+n),l=(t.fps?1e3/t.fps:0)*t.speed;if(a>=e+l&&!t._rollingBack&&(t.offset=a,e=a,t._apply(a,i)===t._animations.length))return void t.pause(!0);t._id=window.requestAnimationFrame(o)};this._id=window.requestAnimationFrame(o)}},{key:"_pause",value:function(){this._id&&window.cancelAnimationFrame(this._id),this._running=!1}},{key:"play",value:function(){if(!this._running)return this._rollingBack?this._rollback(this.offset):this._start(this.offset)}},{key:"stop",value:function(){this._pause(),this.offset=0,this.rollbackStartOffset=0,this._rollingBack=!1,this._apply(0)}},{key:"reachedToEnd",value:function(){return this.iterations>0&&this.offset>=this.iterations*this.duration}},{key:"restart",value:function(){var t=arguments.length>0&&void 0!==arguments[0]&&arguments[0];this.stop(t),this.play(t)}},{key:"pause",value:function(){this._pause()}},{key:"reverse",value:function(){this.direction=-this.direction}}],[{key:"build",value:function(t,n){delete t.animationSettings,t.options=ft(t.options,t.root,"5c7f360c"),t.animations.map((function(n){n.settings=ft(n.s,t.root,"5c7f360c"),delete n.s,t.animationSettings||(t.animationSettings=n.settings)}));var e=t.version;if(!(t=ut(t,n)))return null;var r=t.options||{},i=new this(t.animations,t.animationSettings,e);return{el:t.svg,options:r,player:i}}},{key:"push",value:function(t){return this.build(t)}},{key:"init",value:function(){var t=this,n=window.__SVGATOR_PLAYER__&&window.__SVGATOR_PLAYER__["5c7f360c"];Array.isArray(n)&&n.splice(0).forEach((function(n){return t.build(n)}))}}]),t}();function vt(t){return d(t)+""}function yt(t){var n=arguments.length>1&&void 0!==arguments[1]?arguments[1]:" ";return t&&t.length?t.map(vt).join(n):""}function gt(t){if(!t)return"transparent";if(null==t.a||t.a>=1){var n=function(t){return 1===(t=parseInt(t).toString(16)).length?"0"+t:t},e=function(t){return t.charAt(0)===t.charAt(1)},r=n(t.r),i=n(t.g),o=n(t.b);return e(r)&&e(i)&&e(o)&&(r=r.charAt(0),i=i.charAt(0),o=o.charAt(0)),"#"+r+i+o}return"rgba("+t.r+","+t.g+","+t.b+","+t.a+")"}function dt(t){return t?"url(#"+t+")":"none"}!function(){for(var t=0,n=["ms","moz","webkit","o"],e=0;e<n.length&&!window.requestAnimationFrame;++e)window.requestAnimationFrame=window[n[e]+"RequestAnimationFrame"],window.cancelAnimationFrame=window[n[e]+"CancelAnimationFrame"]||window[n[e]+"CancelRequestAnimationFrame"];window.requestAnimationFrame||(window.requestAnimationFrame=function(n){var e=Date.now(),r=Math.max(0,16-(e-t)),i=window.setTimeout((function(){n(e+r)}),r);return t=e+r,i},window.cancelAnimationFrame=window.clearTimeout)}();var pt={f:null,i:function(t,n,e){return 0===t?n:1===t?e:{x:B(t,n.x,e.x),y:B(t,n.y,e.y)}},u:function(t,n){return function(e){var r=n(e);t.setAttribute("rx",vt(r.x)),t.setAttribute("ry",vt(r.y))}}},mt={f:null,i:function(t,n,e){return 0===t?n:1===t?e:{width:B(t,n.width,e.width),height:B(t,n.height,e.height)}},u:function(t,n){return function(e){var r=n(e);t.setAttribute("width",vt(r.width)),t.setAttribute("height",vt(r.height))}}};Object.freeze({M:2,L:2,Z:0,H:1,V:1,C:6,Q:4,T:2,S:4,A:7});var bt={},wt=null;function At(t){var n=function(){if(wt)return wt;if("object"!==("undefined"==typeof document?"undefined":e(document))||!document.createElementNS)return{};var t=document.createElementNS("http://www.w3.org/2000/svg","svg");return t&&t.style?(t.style.position="absolute",t.style.opacity="0.01",t.style.zIndex="-9999",t.style.left="-9999px",t.style.width="1px",t.style.height="1px",wt={svg:t}):{}}().svg;if(!n)return function(t){return null};var r=document.createElementNS(n.namespaceURI,"path");r.setAttributeNS(null,"d",t),r.setAttributeNS(null,"fill","none"),r.setAttributeNS(null,"stroke","none"),n.appendChild(r);var i=r.getTotalLength();return function(t){var n=r.getPointAtLength(i*t);return{x:n.x,y:n.y}}}function _t(t){return bt[t]?bt[t]:bt[t]=At(t)}function xt(t,n,e,r){if(!t||!r)return!1;var i=["M",t.x,t.y];if(n&&e&&(i.push("C"),i.push(n.x),i.push(n.y),i.push(e.x),i.push(e.y)),n?!e:e){var o=n||e;i.push("Q"),i.push(o.x),i.push(o.y)}return n||e||i.push("L"),i.push(r.x),i.push(r.y),i.join(" ")}function kt(t,n,e,r){var i=arguments.length>4&&void 0!==arguments[4]?arguments[4]:1,o=xt(t,n,e,r),u=_t(o);try{return u(i)}catch(t){return null}}function St(t,n,e){return t+(n-t)*e}function Ot(t,n,e){var r=arguments.length>3&&void 0!==arguments[3]&&arguments[3],i={x:St(t.x,n.x,e),y:St(t.y,n.y,e)};return r&&(i.a=jt(t,n)),i}function jt(t,n){return Math.atan2(n.y-t.y,n.x-t.x)}function Et(t,n,e,r){var i=1-r;return i*i*t+2*i*r*n+r*r*e}function Mt(t,n,e,r){return 2*(1-r)*(n-t)+2*r*(e-n)}function Pt(t,n,e,r){var i=arguments.length>4&&void 0!==arguments[4]&&arguments[4],o=kt(t,n,null,e,r);return o||(o={x:Et(t.x,n.x,e.x,r),y:Et(t.y,n.y,e.y,r)}),i&&(o.a=It(t,n,e,r)),o}function It(t,n,e,r){return Math.atan2(Mt(t.y,n.y,e.y,r),Mt(t.x,n.x,e.x,r))}function Rt(t,n,e,r,i){var o=i*i;return i*o*(r-t+3*(n-e))+3*o*(t+e-2*n)+3*i*(n-t)+t}function Ft(t,n,e,r,i){var o=1-i;return 3*(o*o*(n-t)+2*o*i*(e-n)+i*i*(r-e))}function Nt(t,n,e,r,i){var o=arguments.length>5&&void 0!==arguments[5]&&arguments[5],u=kt(t,n,e,r,i);return u||(u={x:Rt(t.x,n.x,e.x,r.x,i),y:Rt(t.y,n.y,e.y,r.y,i)}),o&&(u.a=Tt(t,n,e,r,i)),u}function Tt(t,n,e,r,i){return Math.atan2(Ft(t.y,n.y,e.y,r.y,i),Ft(t.x,n.x,e.x,r.x,i))}function qt(t,n,e){var r=arguments.length>3&&void 0!==arguments[3]&&arguments[3];if(Dt(n)){if(Lt(e))return Pt(n,e.start,e,t,r)}else if(Dt(e)){if(Ct(n))return Pt(n,n.end,e,t,r)}else{if(Ct(n))return Lt(e)?Nt(n,n.end,e.start,e,t,r):Pt(n,n.end,e,t,r);if(Lt(e))return Pt(n,e.start,e,t,r)}return Ot(n,e,t,r)}function Bt(t,n,e){var r=qt(t,n,e,!0);return r.a=function(t){return arguments.length>1&&void 0!==arguments[1]&&arguments[1]?t+Math.PI:t}(r.a)/m,r}function Dt(t){return!t.type||"corner"===t.type}function Lt(t){return null!=t.start&&!Dt(t)}function Ct(t){return null!=t.end&&!Dt(t)}var Vt=new N;var Gt={f:vt,i:q},zt={f:vt,i:D};function Yt(t,n,e){return t.map((function(t){return function(t,n,e){var r=t.v;if(!r||"g"!==r.t||r.s||!r.v||!r.r)return t;var i=e.getElementById(r.r),o=i&&i.querySelectorAll("stop")||[];return r.s=r.v.map((function(t,n){var e=o[n]&&o[n].getAttribute("offset");return{c:t,o:e=d(parseInt(e)/100)}})),delete r.v,t}(t,0,e)}))}var $t={gt:"gradientTransform",c:{x:"cx",y:"cy"},rd:"r",f:{x:"x1",y:"y1"},to:{x:"x2",y:"y2"}};function Ut(t,n,r,i,o,u,a,l){return Yt(t,0,l),n=function(t,n,e){for(var r,i,o,u=t.length-1,a={},l=0;l<=u;l++)(r=t[l]).e&&(r.e=n(r.e)),r.v&&"g"===(i=r.v).t&&i.r&&(o=e.getElementById(i.r))&&(a[i.r]={e:o,s:o.querySelectorAll("stop")});return a}(t,i,l),function(i){var o=r(i,t,Qt);if(!o)return"none";if("c"===o.t)return gt(o.v);if("g"===o.t){if(!n[o.r])return dt(o.r);var u=n[o.r];return function(t,n){for(var e=t.s,r=e.length;r<n.length;r++){var i=e[e.length-1].cloneNode();i.id=Zt(i.id),t.e.appendChild(i),e=t.s=t.e.querySelectorAll("stop")}for(var o=0,u=e.length,a=n.length-1;o<u;o++)e[o].setAttribute("stop-color",gt(n[Math.min(o,a)].c)),e[o].setAttribute("offset",n[Math.min(o,a)].o)}(u,o.s),Object.keys($t).forEach((function(t){if(void 0!==o[t])if("object"!==e($t[t])){var n,r="gt"===t?(n=o[t],Array.isArray(n)?"matrix("+n.join(" ")+")":""):o[t],i=$t[t];u.e.setAttribute(i,r)}else Object.keys($t[t]).forEach((function(n){if(void 0!==o[t][n]){var e=o[t][n],r=$t[t][n];u.e.setAttribute(r,e)}}))})),dt(o.r)}return"none"}}function Qt(t,e,r){if(0===t)return e;if(1===t)return r;if(e&&r){var i=e.t;if(i===r.t)switch(e.t){case"c":return{t:i,v:V(t,e.v,r.v)};case"g":if(e.r===r.r){var o={t:i,s:Ht(t,e.s,r.s),r:e.r};return e.gt&&r.gt&&(o.gt=function(t,n,e){var r=n.length;if(r!==e.length)return T(t,n,e);for(var i=new Array(r),o=0;o<r;o++)i[o]=q(t,n[o],e[o]);return i}(t,e.gt,r.gt)),e.c?(o.c=L(t,e.c,r.c),o.rd=B(t,e.rd,r.rd)):e.f&&(o.f=L(t,e.f,r.f),o.to=L(t,e.to,r.to)),o}}if("c"===e.t&&"g"===r.t||"c"===r.t&&"g"===e.t){var u="c"===e.t?e:r,a="g"===e.t?n({},e):n({},r),l=a.s.map((function(t){return{c:u.v,o:t.o}}));return a.s="c"===e.t?Ht(t,l,a.s):Ht(t,a.s,l),a}}return T(t,e,r)}function Ht(t,n,e){if(n.length===e.length)return n.map((function(n,r){return Jt(t,n,e[r])}));for(var r=Math.max(n.length,e.length),i=[],o=0;o<r;o++){var u=Jt(t,n[Math.min(o,n.length-1)],e[Math.min(o,e.length-1)]);i.push(u)}return i}function Jt(t,n,e){return{o:D(t,n.o,e.o||0),c:V(t,n.c,e.c||{})}}function Zt(t){return t.replace(/-fill-([0-9]+)$/,(function(t,n){return"-fill-"+(+n+1)}))}var Kt={fill:Ut,"fill-opacity":zt,stroke:Ut,"stroke-opacity":zt,"stroke-width":Gt,"stroke-dashoffset":{f:vt,i:q},"stroke-dasharray":{f:function(t){var n=arguments.length>1&&void 0!==arguments[1]?arguments[1]:" ";return t&&t.length>0&&(t=t.map((function(t){return d(t,4)}))),yt(t,n)},i:function(t,n,e){var r,i,o,u=n.length,a=e.length;if(u!==a)if(0===u)n=G(u=a,0);else if(0===a)a=u,e=G(u,0);else{var l=(o=(r=u)*(i=a)/function(t,n){for(var e;n;)e=n,n=t%n,t=e;return t||1}(r,i))<0?-o:o;n=z(n,Math.floor(l/u)),e=z(e,Math.floor(l/a)),u=a=l}for(var s=[],f=0;f<u;f++)s.push(d(B(t,n[f],e[f])));return s}},opacity:zt,transform:function(t,n,r,i){if(!(t=function(t,n){if(!t||"object"!==e(t))return null;var r=!1;for(var i in t)t.hasOwnProperty(i)&&(t[i]&&t[i].length?(t[i].forEach((function(t){t.e&&(t.e=n(t.e))})),r=!0):delete t[i]);return r?t:null}(t,i)))return null;var o=function(e,i,o){var u=arguments.length>3&&void 0!==arguments[3]?arguments[3]:null;return t[e]?r(i,t[e],o):n&&n[e]?n[e]:u};return n&&n.a&&t.o?function(n){var e=r(n,t.o,Bt);return Vt.recomposeSelf(e,o("r",n,q,0)+e.a,o("k",n,L),o("s",n,L),o("t",n,L)).toString()}:function(t){return Vt.recomposeSelf(o("o",t,qt,null),o("r",t,q,0),o("k",t,L),o("s",t,L),o("t",t,L)).toString()}},r:Gt,"#size":mt,"#radius":pt,_:function(t,n){if(Array.isArray(t))for(var e=0;e<t.length;e++)this[t[e]]=n;else this[t]=n}},Wt=function(t){!function(t,n){if("function"!=typeof n&&null!==n)throw new TypeError("Super expression must either be null or a function");t.prototype=Object.create(n&&n.prototype,{constructor:{value:t,writable:!0,configurable:!0}}),n&&l(t,n)}(u,t);var n,e,i=(n=u,e=s(),function(){var t,r=a(n);if(e){var i=a(this).constructor;t=Reflect.construct(r,arguments,i)}else t=r.apply(this,arguments);return c(this,t)});function u(){return r(this,u),i.apply(this,arguments)}return o(u,null,[{key:"build",value:function(t){var n=h(a(u),"build",this).call(this,t,Kt);if(!n)return null;n.el,n.options,function(t,n,e){t.play()}(n.player)}}]),u}(ht);return Wt.init(),Wt}));
(function(s,i,o,w,d,a,b){w[o]=w[o]||{};w[o][s]=w[o][s]||[];w[o][s].push(i);})('5c7f360c',{"root":"e3XSvEcuDKd1","version":"2022-05-04","animations":[{"elements":{"e3XSvEcuDKd2":{"transform":{"data":{"r":0.288933,"t":{"x":-507.650055,"y":-245.79998}},"keys":{"o":[{"t":1000,"v":{"x":349.000055,"y":247.828719,"type":"corner"}},{"t":2000,"v":{"x":507.750055,"y":250.39998,"type":"corner"}}]}},"opacity":[{"t":1000,"v":0},{"t":2000,"v":1}]},"e3XSvEcuDKd3":{"transform":{"data":{"t":{"x":-260.950012,"y":-314.450027}},"keys":{"o":[{"t":1000,"v":{"x":337.000012,"y":318.493948,"type":"corner"}},{"t":2000,"v":{"x":260.650012,"y":319.302732,"type":"corner"}}]}},"opacity":[{"t":1000,"v":0},{"t":2000,"v":1}]},"e3XSvEcuDKd4":{"transform":{"data":{"t":{"x":-337.97911,"y":-233.855179}},"keys":{"o":[{"t":0,"v":{"x":337.979111,"y":233.855179,"type":"corner"}},{"t":1000,"v":{"x":449.591326,"y":189.241638,"type":"corner"}}],"r":[{"t":0,"v":0},{"t":1000,"v":-15.135671}]}}},"e3XSvEcuDKd11":{"transform":{"data":{"t":{"x":-141.958607,"y":-229.149994}},"keys":{"o":[{"t":0,"v":{"x":141.958607,"y":229.149994,"type":"corner"}},{"t":1000,"v":{"x":253.880665,"y":236.989183,"type":"corner"}}],"r":[{"t":0,"v":0},{"t":1000,"v":-13.798697}]}}},"e3XSvEcuDKd12":{"transform":{"data":{"t":{"x":-119,"y":-161.600006}},"keys":{"o":[{"t":0,"v":{"x":119,"y":161.600006,"type":"corner"}},{"t":1000,"v":{"x":197.166234,"y":173.486791,"type":"corner"}}],"r":[{"t":0,"v":0},{"t":1000,"v":-24.176666}]}}},"e3XSvEcuDKd16":{"transform":{"data":{"t":{"x":-89.249996,"y":-234.106186}},"keys":{"o":[{"t":0,"v":{"x":89.249996,"y":234.106186,"type":"corner"}},{"t":1000,"v":{"x":166.464061,"y":248.71196,"type":"corner"}}],"r":[{"t":0,"v":0},{"t":1000,"v":5.925585}]}}},"e3XSvEcuDKd19":{"transform":{"data":{"t":{"x":-53.949998,"y":-237.050011}},"keys":{"o":[{"t":0,"v":{"x":53.949998,"y":237.050011,"type":"corner"}},{"t":1000,"v":{"x":126.805272,"y":243.290216,"type":"corner"}}],"r":[{"t":0,"v":0},{"t":1000,"v":15.682574}]}}},"e3XSvEcuDKd20":{"transform":{"data":{"t":{"x":-73.349997,"y":-284.75}},"keys":{"o":[{"t":0,"v":{"x":73.349997,"y":284.256199,"type":"corner"}},{"t":1000,"v":{"x":89.840455,"y":328.956157,"type":"corner"}}],"r":[{"t":0,"v":0},{"t":1000,"v":81.663989}]}}}},"s":"MYDA1ZGMxNjhhYWJiYjJhhN2JhYWZMYjViNDYB4ODA3ODc3NzY3NjcyVNjhhYWFmYjhhYmE5YCmFhZmI1YjQ2ODgwNzFc3MjY4VGFmYmFhYmID4YTdiYWFmQWI1YjRiNOTY4ODA3N003MjY4YSWNhZmIyYjI2ODgwNzYc3MjY4YTdiMmJhYWJGHYjhZYjRhN2JhYWJNYNjg4ME1hY2E3YjJiODWFiQjcyNjhiOWI2Q2FFiYWJhYVY2ODgwNzcS3MjY4YWNiNmI5Njg4OMDc3NzY3NmMz"}],"options":"MUDAxMDg4MmY4MDgxNmHU3ZjgxMmY0NzJmNzkD3Y0Q2ZTcxMmY4YQ|"},'__SVGATOR_PLAYER__',window,document)
]]></script>
</svg>
